<?xml version="1.0" encoding="UTF-8" standalone="no"?>
<!DOCTYPE svg PUBLIC "-//W3C//DTD SVG 1.1//EN" "http://www.w3.org/Graphics/SVG/1.1/DTD/svg11.dtd">
<svg width="100%" height="100%" viewBox="0 0 2084 2084" version="1.1" xmlns="http://www.w3.org/2000/svg" xmlns:xlink="http://www.w3.org/1999/xlink" xml:space="preserve" xmlns:serif="http://www.serif.com/" style="fill-rule:evenodd;clip-rule:evenodd;stroke-linejoin:round;stroke-miterlimit:2;">
    <g id="Page-1" serif:id="Page 1" transform="matrix(4.166667,0,0,4.166667,0,0)">
        <rect x="0" y="0" width="500" height="500" style="fill:none;"/>
        <g id="Layer-1" serif:id="Layer 1">
            <g transform="matrix(1,0,0,1,-0.0004,32.12865)">
                <g transform="matrix(1,0,0,1,235.3154,256.9966)">
                    <path d="M0,-32.668C-28.793,-36.858 -53.289,-54.574 -66.709,-79.244C-72.011,-68.391 -75.198,-56.328 -75.741,-43.598C-58.906,-26.361 -35.293,-15.81 -9.299,-16.209C-5.58,-16.266 -1.917,-16.545 1.679,-17.035C-1.867,-16.264 -5.497,-15.696 -9.2,-15.346C-34.211,-12.98 -57.811,-20.984 -75.744,-35.835C-75.184,-22.503 -71.744,-9.937 -66.036,1.269C-41.743,4.511 -7.011,-0.619 12.226,-15.513C-5.279,0.686 -38.724,7.904 -62.733,7.191C-57.363,16.021 -50.522,23.851 -42.557,30.346C-20.568,22.408 14.515,2.074 22.982,-18.624C16.453,2.638 -16.923,24.935 -37.798,33.972C-30.119,39.432 -21.554,43.719 -12.368,46.576C15.768,30.758 34.572,0.421 34.043,-34.119C32.174,-40.873 27.652,-46.545 22.521,-48.679C27.674,-49.306 30.372,-51.264 32.264,-54.671C19.371,-51.377 6.453,-68.658 -5.009,-52.54C-7.839,-52.556 -13.026,-50.033 -14.656,-47.456C-5.75,-48 3.733,-39.334 0.967,-33.951C4.7,-32.717 7.932,-32.047 14.597,-31.729C11.137,-31.676 7.72,-31.817 4.355,-32.142C3.022,-32.271 1.698,-32.428 0.382,-32.614C0.255,-32.631 0.127,-32.649 0,-32.668" style="fill:white;"/>
                </g>
                <g transform="matrix(1,0,0,1,274.1094,261.5088)">
                    <path d="M0,-37.792C0,-4.233 -17.528,26.637 -46.134,43.92C-41.791,45.016 -37.322,45.798 -32.753,46.238C-6.994,31.221 11.714,6.512 18.987,-22.5C37.375,-26.372 53.717,-35.801 66.171,-48.949C65.434,-61.668 62.063,-73.682 56.596,-84.452C48.743,-69.477 36.839,-56.961 22.338,-48.361C15.427,-44.263 7.926,-41.054 -0.006,-38.892C-0.002,-38.525 0,-38.159 0,-37.792M-1.807,43.919C-5.163,41.891 -8.396,39.655 -11.479,37.229L-12.049,36.782C-16.084,40.353 -20.383,43.654 -24.92,46.655C-24.604,46.658 -24.289,46.66 -23.972,46.66C-16.324,46.66 -8.898,45.709 -1.807,43.919M29.976,28.779C21.685,25.734 13.468,21.822 5.801,17.576L5.431,17.371C1.247,23.235 -3.483,28.703 -8.703,33.7C-5.758,36.017 -2.671,38.151 0.537,40.089L4.068,42.221C13.479,39.15 22.209,34.574 29.976,28.779M53.943,2.029C42.681,2.536 29.313,1.328 16.463,-1.743C14.024,3.61 11.186,8.755 7.977,13.647C17.181,18.745 26.453,22.852 34.127,25.489C41.99,18.873 48.709,10.939 53.943,2.029M22.635,-18.721C21.427,-14.354 19.968,-10.084 18.271,-5.931C29.79,-3.247 42.376,-1.896 54.167,-2.477L56.478,-2.591C62.644,-14.652 66.177,-28.282 66.32,-42.725C54.152,-31.009 39.088,-22.696 22.635,-18.721" style="fill:rgb(255,0,0);"/>
                </g>
                <g transform="matrix(1,0,0,1,188.8862,127.5739)">
                    <path d="M0,69.807C8.566,44.19 32.752,25.728 61.251,25.728C89.75,25.728 113.936,44.19 122.502,69.807C129.014,63.423 134.529,56.033 138.795,47.897L139.87,45.848C138.358,43.18 136.714,40.597 134.948,38.106L122.741,37.406C120.082,34.317 117.194,31.43 114.103,28.772L113.42,16.586C108.902,13.382 104.076,10.583 98.996,8.243L88.083,13.733C84.26,12.393 80.308,11.33 76.248,10.572L69.575,0.378C66.834,0.128 64.057,0 61.251,0C58.435,0 55.649,0.128 52.899,0.381L46.202,10.582C42.142,11.344 38.188,12.408 34.367,13.75L23.482,8.254C18.403,10.596 13.578,13.397 9.06,16.601L8.358,28.807C5.269,31.467 2.381,34.355 -0.277,37.446L-12.461,38.129C-14.221,40.611 -15.858,43.185 -17.365,45.844L-16.291,47.893C-11.993,56.091 -6.471,63.464 0,69.807" style="fill:rgb(51,51,51);"/>
                </g>
            </g>
        </g>
    </g>
</svg>
